HIERARCHY
ROOT Hips
{
 OFFSET 0.000000 0.000000 0.000000
 CHANNELS 6 Xposition Yposition Zposition Yrotation Xrotation Zrotation
 JOINT Chest
 {
  OFFSET 0.000000 9.968492 -0.001267
  CHANNELS 3 Yrotation Xrotation Zrotation
  JOINT Chest2
  {
   OFFSET 0.000000 10.967159 0.002301
   CHANNELS 3 Yrotation Xrotation Zrotation
   JOINT Chest3
   {
    OFFSET 0.000000 9.909283 0.000000
    CHANNELS 3 Yrotation Xrotation Zrotation
    JOINT Chest4
    {
     OFFSET 0.000000 9.909283 0.000000
     CHANNELS 3 Yrotation Xrotation Zrotation
     JOINT Neck
     {
      OFFSET 0.000000 13.946294 0.000000
      CHANNELS 3 Yrotation Xrotation Zrotation
      JOINT Head
      {
       OFFSET 0.000000 9.224544 0.005472
       CHANNELS 3 Yrotation Xrotation Zrotation
       End Site
       {
        OFFSET 0.000000 17.643221 0.002858
       }
      }
     }
     JOINT RightCollar
     {
      OFFSET -3.037229 7.783075 0.000000
      CHANNELS 3 Yrotation Xrotation Zrotation
      JOINT RightShoulder
      {
       OFFSET -14.223264 0.000000 0.000000
       CHANNELS 3 Yrotation Xrotation Zrotation
       JOINT RightElbow
       {
        OFFSET 0.000000 -30.459151 0.000000
        CHANNELS 3 Yrotation Xrotation Zrotation
        JOINT RightWrist
        {
         OFFSET 0.000000 -24.900006 -0.000000
         CHANNELS 3 Yrotation Xrotation Zrotation
         End Site
         {
          OFFSET 0.000000 -18.592915 0.000000
         }
        }
       }
      }
     }
     JOINT LeftCollar
     {
      OFFSET 3.037229 7.783075 0.000000
      CHANNELS 3 Yrotation Xrotation Zrotation
      JOINT LeftShoulder
      {
       OFFSET 14.223264 0.000000 0.000000
       CHANNELS 3 Yrotation Xrotation Zrotation
       JOINT LeftElbow
       {
        OFFSET 0.000000 -30.459151 0.000000
        CHANNELS 3 Yrotation Xrotation Zrotation
        JOINT LeftWrist
        {
         OFFSET 0.000000 -24.900006 -0.000000
         CHANNELS 3 Yrotation Xrotation Zrotation
         End Site
         {
          OFFSET 0.000000 -18.592915 0.000000
         }
        }
       }
      }
     }
    }
   }
  }
 }
 JOINT RightHip
 {
  OFFSET -8.105589 0.006207 0.000633
  CHANNELS 3 Yrotation Xrotation Zrotation
  JOINT RightKnee
  {
   OFFSET 0.000000 -42.037588 -0.000599
   CHANNELS 3 Yrotation Xrotation Zrotation
   JOINT RightAnkle
   {
    OFFSET 0.000000 -41.031088 -0.001013
    CHANNELS 3 Yrotation Xrotation Zrotation
    JOINT RightToe
    {
     OFFSET 0.000000 -7.217244 16.396997
     CHANNELS 3 Yrotation Xrotation Zrotation
     End Site
     {
      OFFSET 0.000000 -1.535852 6.674588
     }
    }
   }
  }
 }
 JOINT LeftHip
 {
  OFFSET 8.105589 0.006207 0.000633
  CHANNELS 3 Yrotation Xrotation Zrotation
  JOINT LeftKnee
  {
   OFFSET 0.000000 -42.037588 -0.000599
   CHANNELS 3 Yrotation Xrotation Zrotation
   JOINT LeftAnkle
   {
    OFFSET 0.000000 -41.031088 -0.001013
    CHANNELS 3 Yrotation Xrotation Zrotation
    JOINT LeftToe
    {
     OFFSET 0.000000 -7.217244 16.396997
     CHANNELS 3 Yrotation Xrotation Zrotation
     End Site
     {
      OFFSET 0.000000 -1.535852 6.674588
     }
    }
   }
  }
 }
}
MOTION
Frames: 16
Frame Time: 0.008333
12.403413 57.943938 130.547345 16.085738 -15.308095 -0.022084 -4.485736 14.887045 -2.309032 -1.626104 6.583929 -0.001184 -1.626104 6.583929 -0.001184 -1.218219 4.937991 0.016700 -10.585053 17.567906 6.453764 -13.607524 -6.567155 9.899150 -4.252509 6.094038 5.360237 -17.657617 -27.458514 -18.931189 80.107194 -45.600302 -69.781516 -1.288911 -1.614476 -20.884944 -2.962717 -0.559574 -10.073427 -2.580090 -17.636354 13.284305 -42.447415 -41.597199 13.916246 -16.789014 6.446423 6.615319 2.360734 -53.740584 -30.695525 138.279585 62.259576 131.507511 23.009888 -23.491272 -3.750721 0.708104 -8.467257 -4.711593 24.898769 -51.330902 10.452376 166.210931 66.783910 171.227971 -33.144717 -19.063201 5.589338 -2.775575 -24.612170 15.888665
12.403587 57.944142 130.549307 16.087957 -15.310454 -0.022035 -4.481571 14.886287 -2.311444 -1.625398 6.583355 -0.002111 -1.625398 6.583355 -0.002111 -1.217680 4.937563 0.015997 -10.578310 17.566670 6.449636 -13.597999 -6.569764 9.892263 -4.264455 6.096190 5.368219 -17.664430 -27.462354 -18.921506 80.069827 -45.605774 -69.773416 -1.286881 -1.610800 -20.888885 -2.972316 -0.554119 -10.070649 -2.588577 -17.633754 13.293429 -42.429673 -41.601617 13.915000 -16.793334 6.447092 6.607469 2.363927 -53.740931 -30.702739 138.279763 62.256242 131.505602 23.037936 -23.479402 -3.762926 0.704697 -8.473740 -4.713013 24.898728 -51.331446 10.452170 166.229399 66.780964 171.247379 -33.138923 -19.055858 5.593394 -2.777153 -24.619915 15.887537
12.401936 57.943888 130.549582 16.086012 -15.306786 -0.027894 -4.475008 14.880604 -2.305063 -1.625370 6.583375 -0.002782 -1.625370 6.583375 -0.002782 -1.217652 4.937580 0.015493 -10.567280 17.563668 6.444516 -13.582947 -6.575009 9.882953 -4.263765 6.094395 5.366281 -17.687433 -27.460277 -18.899789 80.029395 -45.610253 -69.768993 -1.286823 -1.603102 -20.889163 -2.971197 -0.553079 -10.075208 -2.586138 -17.632776 13.301527 -42.436941 -41.603936 13.910644 -16.795140 6.450464 6.601744 2.364737 -53.742479 -30.692963 138.284405 62.260802 131.515024 23.027834 -23.479285 -3.752447 0.704181 -8.473123 -4.715557 24.897318 -51.340626 10.458354 166.226866 66.778719 171.246964 -33.138770 -19.052149 5.593934 -2.778983 -24.622907 15.886785
12.397748 57.942421 130.549274 16.080277 -15.302141 -0.035083 -4.460260 14.869908 -2.295839 -1.623648 6.581306 -0.003613 -1.623648 6.581306 -0.003613 -1.216354 4.936030 0.014847 -10.556690 17.566327 6.438910 -13.568168 -6.573710 9.873079 -4.268621 6.106971 5.364369 -17.704608 -27.473143 -18.874711 79.985463 -45.609887 -69.749189 -1.284004 -1.584256 -20.891067 -2.973999 -0.546324 -10.073316 -2.581750 -17.630873 13.301978 -42.439967 -41.609830 13.905767 -16.809763 6.446944 6.591888 2.358505 -53.748803 -30.671195 138.289827 62.264574 131.521377 23.032903 -23.476881 -3.756036 0.704535 -8.470943 -4.715513 24.892228 -51.352068 10.471715 166.212000 66.774455 171.233087 -33.137660 -19.055492 5.590923 -2.783719 -24.621251 15.884379
12.396110 57.941784 130.549370 16.080918 -15.305882 -0.033551 -4.454540 14.865700 -2.300767 -1.621078 6.579706 -0.004832 -1.621078 6.579706 -0.004832 -1.214416 4.934833 0.013902 -10.548147 17.572010 6.434162 -13.556107 -6.568600 9.864772 -4.278817 6.120043 5.367447 -17.736708 -27.478423 -18.841280 79.952555 -45.611243 -69.736150 -1.283795 -1.577276 -20.893704 -2.979562 -0.538843 -10.063394 -2.575210 -17.628545 13.302368 -42.448434 -41.618415 13.901578 -16.807620 6.446198 6.588770 2.358134 -53.746748 -30.666317 138.303873 62.263240 131.534672 23.021280 -23.478338 -3.757561 0.712499 -8.473794 -4.712006 24.895171 -51.349894 10.469414 166.212712 66.774219 171.236066 -33.133139 -19.055180 5.589382 -2.785273 -24.621396 15.883569
12.396894 57.941497 130.549006 16.086459 -15.309726 -0.031688 -4.457767 14.865080 -2.309296 -1.619579 6.579058 -0.006019 -1.619579 6.579058 -0.006019 -1.213281 4.934351 0.012994 -10.534851 17.573483 6.430244 -13.538559 -6.568827 9.856111 -4.289335 6.123876 5.374662 -17.759691 -27.487653 -18.818109 79.907742 -45.613193 -69.709832 -1.277347 -1.570802 -20.892301 -2.987308 -0.538623 -10.053016 -2.556368 -17.621333 13.289557 -42.466735 -41.619820 13.912905 -16.814194 6.444481 6.581207 2.351960 -53.743132 -30.673598 138.301168 62.263039 131.530009 23.035214 -23.482443 -3.764199 0.710869 -8.465611 -4.713246 24.883223 -51.343759 10.468359 166.192782 66.774339 171.213778 -33.134478 -19.055968 5.583101 -2.785147 -24.621632 15.884131
12.395744 57.941205 130.549093 16.087164 -15.315730 -0.032130 -4.455481 14.861915 -2.312160 -1.619015 6.577384 -0.006932 -1.619015 6.577384 -0.006932 -1.212849 4.933097 0.012300 -10.523381 17.579759 6.423905 -13.522410 -6.563523 9.845034 -4.290877 6.128042 5.372749 -17.791576 -27.491272 -18.791079 79.870298 -45.614566 -69.693557 -1.270551 -1.563638 -20.877703 -2.993235 -0.526442 -10.048775 -2.546585 -17.622794 13.289487 -42.479742 -41.625297 13.923457 -16.809592 6.444946 6.576201 2.352374 -53.739507 -30.671835 138.311841 62.263449 131.542323 23.040552 -23.477410 -3.773648 0.716989 -8.468581 -4.709356 24.877858 -51.338892 10.473501 166.184468 66.775108 171.207443 -33.137508 -19.057072 5.576779 -2.783631 -24.620425 15.887028
12.395583 57.941411 130.550124 16.093829 -15.326623 -0.030453 -4.457010 14.862836 -2.318287 -1.617762 6.575804 -0.008229 -1.617762 6.575804 -0.008229 -1.211897 4.931916 0.011310 -10.513712 17.588208 6.418329 -13.508665 -6.555427 9.835356 -4.295202 6.129499 5.372766 -17.819945 -27.486791 -18.765313 79.827903 -45.606820 -69.681419 -1.266769 -1.551423 -20.864724 -2.993225 -0.510138 -10.044619 -2.542205 -17.626473 13.289733 -42.494416 -41.627191 13.927675 -16.808189 6.440393 6.579468 2.342586 -53.727368 -30.678133 138.304208 62.261395 131.534305 23.047152 -23.482350 -3.779264 0.711228 -8.461661 -4.709829 24.865588 -51.329133 10.478939 166.185627 66.775525 171.208156 -33.138216 -19.052334 5.573174 -2.781915 -24.623959 15.888192
12.394981 57.941074 130.551133 16.090610 -15.334554 -0.031364 -4.448661 14.860741 -2.319487 -1.617357 6.574203 -0.009584 -1.617357 6.574203 -0.009584 -1.211580 4.930718 0.010286 -10.502296 17.593790 6.414564 -13.493398 -6.550674 9.827359 -4.301974 6.139205 5.378437 -17.843357 -27.494191 -18.740150 79.787161 -45.595907 -69.666775 -1.265713 -1.549944 -20.854728 -2.993566 -0.495008 -10.036035 -2.540538 -17.630802 13.284558 -42.506591 -41.627105 13.937216 -16.802249 6.436715 6.577505 2.349765 -53.717614 -30.681184 138.294044 62.259426 131.527817 23.043841 -23.482370 -3.770340 0.698832 -8.461723 -4.713814 24.871132 -51.323651 10.483170 166.186787 66.775038 171.217391 -33.143036 -19.054630 5.570500 -2.779341 -24.623018 15.891903
12.396770 57.940886 130.552476 16.097620 -15.343949 -0.027426 -4.454742 14.861834 -2.329505 -1.616248 6.572719 -0.009803 -1.616248 6.572719 -0.009803 -1.210747 4.929605 0.010106 -10.495729 17.595494 6.409382 -13.483719 -6.549962 9.819226 -4.312714 6.144445 5.380794 -17.879440 -27.498950 -18.703839 79.767674 -45.578704 -69.662835 -1.272012 -1.544308 -20.844283 -2.992428 -0.482373 -10.032052 -2.550961 -17.635318 13.287747 -42.513793 -41.625350 13.942172 -16.787758 6.438344 6.580619 2.335214 -53.708579 -30.688340 138.278729 62.253392 131.503017 23.063235 -23.490300 -3.779345 0.688990 -8.450669 -4.716453 24.863956 -51.312619 10.476271 166.185305 66.774432 171.219647 -33.140578 -19.054019 5.565248 -2.779240 -24.625712 15.894002
12.396288 57.940144 130.552462 16.103424 -15.346598 -0.033107 -4.449818 14.852680 -2.326982 -1.613967 6.570333 -0.009080 -1.613967 6.570333 -0.009080 -1.209047 4.927814 0.010617 -10.493428 17.597827 6.402266 -13.478663 -6.548206 9.810073 -4.321954 6.161794 5.382250 -17.908976 -27.508625 -18.676383 79.721272 -45.572908 -69.651582 -1.266629 -1.529931 -20.843068 -2.996049 -0.461224 -10.028888 -2.555498 -17.637012 13.281031 -42.523890 -41.622049 13.954659 -16.785957 6.437379 6.584081 2.322403 -53.707545 -30.682587 138.279454 62.253003 131.504643 23.075247 -23.486945 -3.789338 0.690273 -8.449405 -4.715162 24.848875 -51.315276 10.486020 166.185582 66.772723 171.220299 -33.144072 -19.050617 5.561792 -2.778566 -24.627192 15.897391
12.393672 57.938676 130.550535 16.099634 -15.339259 -0.044882 -4.432207 14.841667 -2.315341 -1.611450 6.569521 -0.008565 -1.611450 6.569521 -0.008565 -1.207167 4.927203 0.010973 -10.491724 17.599182 6.396977 -13.474921 -6.547337 9.803281 -4.327751 6.162610 5.386779 -17.940466 -27.507859 -18.647740 79.675495 -45.569783 -69.641099 -1.258696 -1.512147 -20.859730 -3.007278 -0.453957 -10.024252 -2.565633 -17.633329 13.281120 -42.525595 -41.622415 13.965256 -16.770875 6.441779 6.590850 2.319374 -53.716347 -30.661960 138.293104 62.261045 131.525290 23.067717 -23.480020 -3.784273 0.697467 -8.453228 -4.713886 24.840296 -51.331995 10.501336 166.173123 66.767871 171.208070 -33.144187 -19.053213 5.558686 -2.783031 -24.624577 15.897963
12.392125 57.937382 130.551379 16.100471 -15.345492 -0.048918 -4.425855 14.843102 -2.316376 -1.609446 6.568289 -0.009469 -1.609446 6.568289 -0.009469 -1.205657 4.926282 0.010272 -10.486249 17.601113 6.394558 -13.467429 -6.545975 9.798739 -4.335783 6.170965 5.397596 -17.954790 -27.519835 -18.622175 79.607868 -45.562416 -69.615493 -1.254373 -1.499973 -20.879619 -3.010697 -0.441447 -10.019173 -2.564980 -17.635659 13.283724 -42.538095 -41.624944 13.979019 -16.764190 6.437629 6.588443 2.317386 -53.712179 -30.660410 138.294566 62.257690 131.530034 23.086156 -23.475841 -3.797766 0.697365 -8.452323 -4.713472 24.827037 -51.330712 10.517883 166.190347 66.765759 171.223768 -33.142344 -19.053631 5.554834 -2.784230 -24.624224 15.901951
12.394484 57.936702 130.550379 16.108678 -15.348454 -0.042674 -4.433053 14.840446 -2.327965 -1.607747 6.567123 -0.010573 -1.607747 6.567123 -0.010573 -1.204372 4.925410 0.009423 -10.482460 17.601858 6.390676 -13.461578 -6.545921 9.792999 -4.335133 6.176570 5.406003 -17.983513 -27.523076 -18.591011 79.537848 -45.558697 -69.597721 -1.247995 -1.487062 -20.896347 -3.018811 -0.432177 -10.011098 -2.574519 -17.642694 13.290684 -42.531357 -41.625403 13.985682 -16.746182 6.442420 6.584693 2.314032 -53.707587 -30.677789 138.293740 62.261699 131.526339 23.087021 -23.486739 -3.786022 0.693072 -8.439657 -4.721003 24.820921 -51.324936 10.506913 166.185341 66.765817 171.215226 -33.139899 -19.050208 5.549851 -2.785901 -24.626210 15.905006
12.396487 57.935231 130.548336 16.111337 -15.346096 -0.040716 -4.429812 14.835377 -2.332620 -1.605692 6.565423 -0.010978 -1.605692 6.565423 -0.010978 -1.202829 4.924136 0.009093 -10.480453 17.600842 6.384415 -13.457216 -6.547915 9.785019 -4.348276 6.180482 5.410906 -17.995926 -27.530555 -18.558552 79.450115 -45.552128 -69.561447 -1.237971 -1.479284 -20.911837 -3.025945 -0.423297 -10.008962 -2.572384 -17.653865 13.287505 -42.546018 -41.617228 13.995931 -16.736821 6.441866 6.575874 2.314471 -53.712372 -30.681530 138.300451 62.260213 131.532019 23.062360 -23.492252 -3.773129 0.695898 -8.435859 -4.719599 24.829138 -51.326159 10.495516 166.186371 66.766593 171.216657 -33.137613 -19.053713 5.551358 -2.787780 -24.620913 15.906157
12.396687 57.935698 130.547743 16.115667 -15.345223 -0.047942 -4.417053 14.832952 -2.326451 -1.602949 6.564771 -0.010870 -1.602949 6.564771 -0.010870 -1.200776 4.923647 0.009142 -10.477851 17.595600 6.379114 -13.452504 -6.554762 9.778083 -4.357395 6.173992 5.412502 -18.027114 -27.527401 -18.520742 79.378018 -45.546739 -69.536808 -1.241753 -1.465058 -20.920024 -3.040583 -0.421141 -10.003457 -2.555936 -17.660893 13.283516 -42.556813 -41.612108 14.001620 -16.734231 6.434654 6.566455 2.293640 -53.715492 -30.659138 138.305065 62.261029 131.527804 23.056575 -23.491841 -3.767812 0.695577 -8.435476 -4.720021 24.823917 -51.329812 10.504092 166.193665 66.767928 171.223258 -33.139701 -19.054437 5.553445 -2.788010 -24.617488 15.908661
